<svg xmlns="http://www.w3.org/2000/svg" version="1.1" xmlns:xlink="http://www.w3.org/1999/xlink" xmlns:svgjs="http://svgjs.dev/svgjs" width="1500" height="1500" viewBox="0 0 1500 1500"><rect width="1500" height="1500" fill="#ffffff"></rect><g transform="matrix(0.6666666666666666,0,0,0.6666666666666666,249.39393939393938,496.13469998400706)"><svg viewBox="0 0 396 201" data-background-color="#ffffff" preserveAspectRatio="xMidYMid meet" height="761" width="1500" xmlns="http://www.w3.org/2000/svg" xmlns:xlink="http://www.w3.org/1999/xlink"><g id="tight-bounds" transform="matrix(1,0,0,1,0.2400000000000091,0.07869639267005368)"><svg viewBox="0 0 395.52 200.8426072146599" height="200.8426072146599" width="395.52"><g><svg viewBox="0 0 395.52 200.8426072146599" height="200.8426072146599" width="395.52"><g transform="matrix(1,0,0,1,0,144.00096584310285)"><svg viewBox="0 0 395.52 56.84164137155705" height="56.84164137155705" width="395.52"><g id="textblocktransform"><svg viewBox="0 0 395.52 56.84164137155705" height="56.84164137155705" width="395.52" id="textblock"><g><svg viewBox="0 0 395.52 56.84164137155705" height="56.84164137155705" width="395.52"><g transform="matrix(1,0,0,1,0,0)"><svg width="395.52" viewBox="1.61 -36.84 260.57 37.45" height="56.84164137155705" data-palette-color="#252120"><path d="M28.3-9.91L28.3-9.91Q28.3-6.88 27.08-4.94 25.85-3 23.91-1.92 21.97-0.83 19.78-0.42 17.58 0 15.6 0L15.6 0 1.61 0 1.61-2.15 4.25-2.34Q4.79-2.39 5.04-2.73 5.3-3.08 5.3-3.44L5.3-3.44 5.3-30.1Q5.3-30.47 5.04-30.82 4.79-31.18 4.25-31.2L4.25-31.2 1.61-31.4 1.61-33.54 14.99-33.54Q20.97-33.54 23.61-31.4 26.25-29.25 26.25-25.49L26.25-25.49Q26.25-23 25.06-21.44 23.88-19.87 22.2-19.03 20.53-18.19 19.04-17.8L19.04-17.8Q21.29-17.8 23.41-17.05 25.54-16.31 26.92-14.59 28.3-12.87 28.3-9.91ZM20.85-25.15L20.85-25.15Q20.85-28.08 18.93-29.66 17.02-31.25 13.16-31.25L13.16-31.25Q12.38-31.25 11.47-31.18 10.57-31.1 10.3-31.1L10.3-31.1 10.3-18.46Q10.3-18.46 11-18.43 11.69-18.41 12.11-18.41L12.11-18.41Q16.99-18.41 18.92-20.17 20.85-21.92 20.85-25.15ZM22.85-9.5L22.85-9.5Q22.85-12.92 20.81-14.5 18.77-16.09 14.79-16.09L14.79-16.09Q13.99-16.09 12.99-16.02 11.99-15.94 11.22-15.87 10.45-15.8 10.3-15.8L10.3-15.8 10.3-2.59Q10.3-2.59 10.88-2.55 11.45-2.51 12.19-2.48 12.94-2.44 13.4-2.44L13.4-2.44Q18.65-2.44 20.75-4.2 22.85-5.96 22.85-9.5ZM55.73-12.01L55.73-12.01Q55.73-8.47 54.27-5.6 52.81-2.73 50.13-1.06 47.46 0.61 43.8 0.61L43.8 0.61Q40.16 0.61 37.5-1.05 34.84-2.71 33.4-5.57 31.96-8.42 31.96-12.01L31.96-12.01Q31.96-15.58 33.41-18.46 34.86-21.34 37.56-23.02 40.26-24.71 43.94-24.71L43.94-24.71Q47.68-24.71 50.31-23 52.95-21.29 54.34-18.41 55.73-15.53 55.73-12.01ZM50.53-12.06L50.53-12.06Q50.53-14.79 49.81-17.16 49.09-19.53 47.62-21 46.14-22.46 43.89-22.46L43.89-22.46Q41.57-22.46 40.1-21 38.62-19.53 37.91-17.16 37.2-14.79 37.2-12.06L37.2-12.06Q37.2-9.35 37.92-6.97 38.64-4.59 40.12-3.13 41.6-1.66 43.85-1.66L43.85-1.66Q46.14-1.66 47.62-3.13 49.09-4.59 49.81-6.96 50.53-9.33 50.53-12.06ZM82.93-12.01L82.93-12.01Q82.93-8.47 81.46-5.6 80-2.73 77.33-1.06 74.65 0.61 70.99 0.61L70.99 0.61Q67.35 0.61 64.69-1.05 62.03-2.71 60.59-5.57 59.15-8.42 59.15-12.01L59.15-12.01Q59.15-15.58 60.6-18.46 62.06-21.34 64.75-23.02 67.45-24.71 71.14-24.71L71.14-24.71Q74.87-24.71 77.51-23 80.15-21.29 81.54-18.41 82.93-15.53 82.93-12.01ZM77.73-12.06L77.73-12.06Q77.73-14.79 77.01-17.16 76.29-19.53 74.81-21 73.33-22.46 71.09-22.46L71.09-22.46Q68.77-22.46 67.29-21 65.82-19.53 65.11-17.16 64.4-14.79 64.4-12.06L64.4-12.06Q64.4-9.35 65.12-6.97 65.84-4.59 67.32-3.13 68.79-1.66 71.04-1.66L71.04-1.66Q73.33-1.66 74.81-3.13 76.29-4.59 77.01-6.96 77.73-9.33 77.73-12.06ZM110.83-1.95L110.83 0 102.82 0 102.82-1.95 96.57-11.35 93.79-11.35 93.79-3.2Q93.79-2.17 94.84-2.1L94.84-2.1 96.99-1.95 96.99 0 85.64 0 85.64-1.95 88.08-2.1Q89.13-2.17 89.13-3.2L89.13-3.2 89.13-33.25 85.34-33.25 85.34-34.91 91.74-36.84 93.79-36.84 93.79-12.79 94.79-12.79 102.14-21.09Q102.24-21.22 102.24-21.41L102.24-21.41Q102.24-21.9 101.73-21.95L101.73-21.95 99.68-22.14 99.68-24.1 109.39-24.1 109.39-22.14 106.19-21.8 99.58-14.75 108.2-2.25 110.83-1.95ZM152.89-23.95L152.89-18.99 150.94-18.99Q150.48-19.56 149.83-19.96 149.18-20.36 148.25-20.36L148.25-20.36Q147.06-20.36 145.8-19.53 144.54-18.7 143.25-17.26L143.25-17.26 143.25-3.2Q143.25-2.15 144.3-2.1L144.3-2.1 147.59-1.95 147.59 0 135.09 0 135.09-1.9 137.56-2.1Q138-2.15 138.31-2.44 138.61-2.73 138.61-3.2L138.61-3.2 138.61-20.56 135-20.56 135-22.19 141.2-24.1 143.25-24.1 143.25-19.65Q143.98-20.46 145.08-21.66 146.18-22.85 147.42-23.78 148.67-24.71 149.84-24.71L149.84-24.71Q150.62-24.71 151.53-24.46 152.43-24.22 152.89-23.95L152.89-23.95ZM176.21-5.54L176.21-2.49Q174.11-1.2 171.68-0.29 169.25 0.61 166.71 0.61L166.71 0.61Q163.68 0.61 161.03-0.74 158.38-2.1 156.75-4.86 155.11-7.62 155.11-11.79L155.11-11.79Q155.11-15.7 156.63-18.6 158.14-21.51 160.8-23.11 163.46-24.71 166.86-24.71L166.86-24.71Q171.52-24.71 173.86-21.81 176.21-18.92 176.21-14.45L176.21-14.45Q176.21-14.21 176.21-13.81 176.21-13.4 176.16-13.06L176.16-13.06 159.95-13.06Q159.95-11.16 160.35-9.27 160.75-7.37 161.7-5.83 162.66-4.3 164.27-3.37 165.88-2.44 168.3-2.44L168.3-2.44Q170.44-2.44 172.48-3.43 174.52-4.42 176.21-5.54L176.21-5.54ZM160.21-15.31L171.2-15.31 171.2-16.41Q171.2-18.87 170.02-20.56 168.83-22.24 166.34-22.24L166.34-22.24Q163.88-22.24 162.14-20.39 160.41-18.53 160.21-15.31L160.21-15.31ZM205.26-1.95L205.26 0 194.22 0 194.22-1.95 196.32-2.1Q196.76-2.15 197.07-2.44 197.37-2.73 197.37-3.2L197.37-3.2 197.37-16.21Q197.37-18.58 196.27-19.81 195.17-21.04 192.56-21.04L192.56-21.04Q191.14-21.04 189.74-20.64 188.34-20.24 187.07-19.6L187.07-19.6 187.07-3.2Q187.07-2.17 188.12-2.1L188.12-2.1 190.22-1.95 190.22 0 178.91 0 178.91-1.95 181.35-2.1Q182.4-2.17 182.4-3.2L182.4-3.2 182.4-20.56 178.91-20.56 178.91-22.19 185.02-24.1 187.07-24.1 187.07-21.61Q189.17-22.8 191.38-23.75 193.59-24.71 195.32-24.71L195.32-24.71Q198.59-24.71 200.3-22.67 202.01-20.63 202.01-16.99L202.01-16.99 202.01-3.2Q202.01-2.73 202.31-2.44 202.62-2.15 203.06-2.1L203.06-2.1 205.26-1.95ZM222.9-3.05L222.9-3.05 222.9-1.05Q222.9-1.05 221.96-0.63 221.02-0.22 219.5 0.2 217.97 0.61 216.17 0.61L216.17 0.61Q213.36 0.61 212.08-0.72 210.8-2.05 210.8-5L210.8-5 210.8-21.61 207.6-21.61 207.6-23.24 211.02-24.85 213.26-30.15 215.46-30.15 215.46-24.1 222.51-24.1 222.51-21.61 215.46-21.61 215.46-7.64Q215.46-4.66 216.46-3.43 217.46-2.2 219.46-2.2L219.46-2.2Q220.93-2.2 221.92-2.62 222.9-3.05 222.9-3.05ZM247.85-1.95L247.85 0 240.46 0 239.8-2.95Q239.8-2.95 239.05-2.42 238.31-1.88 237.09-1.17 235.87-0.46 234.39 0.07 232.91 0.61 231.45 0.61L231.45 0.61Q228.74 0.61 226.85-1.2 224.95-3 224.95-6.15L224.95-6.15Q224.95-7.54 225.45-8.74 225.95-9.94 227.46-11.02 228.96-12.11 231.92-13.15 234.89-14.18 239.8-15.26L239.8-15.26 239.8-17.41Q239.8-22.34 235.13-22.34L235.13-22.34Q233.84-22.34 232.9-22.09 231.96-21.85 231.59-21.7L231.59-21.7 231.59-17.36 227.96-17.36Q227.27-17.36 226.69-17.61 226.1-17.87 226.1-18.8L226.1-18.8Q226.1-20.85 227.66-22.16 229.23-23.46 231.63-24.08 234.04-24.71 236.5-24.71L236.5-24.71Q239.6-24.71 241.31-23.74 243.02-22.78 243.7-21.08 244.39-19.38 244.39-17.21L244.39-17.21 244.39-3.2Q244.39-2.73 244.69-2.44 245-2.15 245.44-2.1L245.44-2.1 247.85-1.95ZM239.8-4.71L239.8-4.71 239.8-13.35Q236.43-12.52 234.44-11.68 232.45-10.84 231.47-10 230.5-9.16 230.19-8.29 229.88-7.42 229.88-6.49L229.88-6.49Q229.88-4.96 230.87-3.65 231.86-2.34 233.64-2.34L233.64-2.34Q234.65-2.34 235.72-2.7 236.79-3.05 237.72-3.53 238.65-4 239.22-4.36 239.8-4.71 239.8-4.71ZM262.18-1.95L262.18 0 250.02 0 250.02-1.95 252.68-2.1Q253.03-2.1 253.41-2.47 253.78-2.83 253.78-3.15L253.78-3.15 253.78-33.25 249.98-33.25 249.98-34.91 256.37-36.84 258.42-36.84 258.42-3.15Q258.42-2.83 258.79-2.47 259.15-2.1 259.47-2.1L259.47-2.1 262.18-1.95Z" opacity="1" transform="matrix(1,0,0,1,0,0)" fill="#000000" class="wordmark-text-0" data-fill-palette-color="primary" id="text-0"></path></svg></g></svg></g></svg></g></svg></g><g transform="matrix(1,0,0,1,132.4689907426644,0)"><svg viewBox="0 0 130.58201851467115 130.58201851467115" height="130.58201851467115" width="130.58201851467115"><g><svg></svg></g><g id="icon-0"><svg viewBox="0 0 130.58201851467115 130.58201851467115" height="130.58201851467115" width="130.58201851467115"><g><rect width="118.73290942722876" height="118.73290942722876" x="5.924554543721193" y="5.924554543721193" fill="#000000" data-fill-palette-color="accent"></rect><rect width="118.73290942722876" height="118.73290942722876" x="2.6645352591003757e-15" y="11.849109087442383" fill="#000000" opacity="0.5" data-fill-palette-color="accent"></rect></g><g transform="matrix(1,0,0,1,16.927298696346263,30.186536255850832)"><svg viewBox="0 0 96.72742112197862 70.20894600296948" height="70.20894600296948" width="96.72742112197862"><g><svg xmlns="http://www.w3.org/2000/svg" xmlns:xlink="http://www.w3.org/1999/xlink" version="1.1" x="0" y="0" viewBox="5.498999999999999 16.625007433093316 90.94800053959338 66.0139925669067" enable-background="new 0 0 100 100" xml:space="preserve" height="70.20894600296948" width="96.72742112197862" class="icon-cg-0" data-fill-palette-color="quaternary" id="cg-0"><g fill="#ffffff" data-fill-palette-color="quaternary"><g fill="#ffffff" data-fill-palette-color="quaternary"><path fill-rule="evenodd" clip-rule="evenodd" d="M92.818 23.216V72.1c0 0-13.907-3.91-24.24-1.923-9.255 1.779-16.066 6.8-17.215 7.687v0.148c0 0-0.034-0.027-0.096-0.075-0.061 0.048-0.095 0.075-0.095 0.075v-0.148c-1.148-0.887-7.959-5.907-17.211-7.687C23.626 68.189 8.357 72.1 8.357 72.1V23.071c-0.893 0.134-1.84 0.277-2.858 0.429v52.662c0 0 16.64-4.282 27.959-2.104 11.131 2.141 17.856 8.581 17.856 8.581s6.725-6.44 17.855-8.581c11.321-2.179 27.278 2.104 27.278 2.104V23.727C96.448 23.727 95.059 23.492 92.818 23.216zM33.121 65.229c9.051 1.739 16.046 6.978 16.046 6.978V24.113c0 0-7.032-5.245-16.104-6.989-9.183-1.766-21.179 1.723-21.179 1.723v48.094C11.884 66.941 23.918 63.459 33.121 65.229zM89.284 67.117V19.023c0 0-10.996-3.49-20.175-1.723-9.072 1.743-16.335 6.987-16.335 6.987v48.095c0 0 7.223-5.237 16.276-6.979C78.252 63.636 89.284 67.117 89.284 67.117z" fill="#ffffff" data-fill-palette-color="quaternary"></path></g></g></svg></g></svg></g></svg></g></svg></g><g></g></svg></g><defs></defs></svg><rect width="395.52" height="200.8426072146599" fill="none" stroke="none" visibility="hidden"></rect></g></svg></g></svg>